<?xml version="1.0" encoding="UTF-8"?>
<svg width="105px" height="24px" viewBox="0 0 105 24" version="1.1" xmlns="http://www.w3.org/2000/svg" xmlns:xlink="http://www.w3.org/1999/xlink">
    <title>Artboard</title>
    <g id="Artboard" stroke="none" stroke-width="1" fill="none" fill-rule="evenodd">
        <g id="logo_vk_28">
            <rect x="0" y="0" width="24" height="24"></rect>
            <path d="M14.8914286,2.57142857 C20.1714286,2.57142857 21.4285714,3.82857143 21.4285714,9.10857143 L21.4285714,14.8914286 L21.4285714,14.8914286 C21.4285714,20.1714286 20.1714286,21.4285714 14.8914286,21.4285714 L9.10857143,21.4285714 L9.10857143,21.4285714 C3.82857143,21.4285714 2.57142857,20.1714286 2.57142857,14.8914286 L2.57142857,9.10857143 L2.57142857,9.10857143 C2.57142857,3.82857143 3.82857143,2.57142857 9.10857143,2.57142857 L14.8914286,2.57142857 L14.8914286,2.57142857 Z M7.48216684,8.46428571 L6.10716684,8.46428571 C5.71430969,8.46428571 5.63573347,8.64922356 5.63573347,8.85315482 C5.63573347,9.21734549 6.10188977,11.0236769 7.80623133,13.4126795 C8.94245095,15.0441781 10.5433098,15.9285714 12.000024,15.9285714 C12.8740428,15.9285714 12.9821668,15.7321429 12.9821668,15.3937953 L12.9821668,14.1607143 C12.9821668,13.7678571 13.0649662,13.6894537 13.3417405,13.6894537 C13.5456717,13.6894537 13.895289,13.7914194 14.7110625,14.578046 C15.6433509,15.5103344 15.797051,15.9285714 16.3214525,15.9285714 L17.6964525,15.9285714 C18.0893097,15.9285714 18.2857383,15.7321429 18.1724217,15.3445021 C18.0484193,14.9581564 17.603302,14.3976204 17.0126729,13.7331498 C16.6921783,13.35441 16.2114728,12.9465474 16.0657868,12.7425677 C15.8618556,12.4803911 15.9201251,12.3638278 16.0657868,12.1307739 L16.0940794,12.0906662 C16.3146382,11.7769386 17.7544768,9.70926507 17.9158386,8.96971814 C18.0032065,8.67837045 17.9158387,8.46428571 17.500024,8.46428571 L16.125024,8.46428571 C15.7754067,8.46428571 15.6142282,8.64922356 15.5268118,8.85315482 C15.5268118,8.85315482 15.521956,8.86499069 15.5124805,8.88733047 L15.4704307,8.98452959 C15.2856413,9.40468595 14.6624843,10.7420368 13.8370194,11.6646176 C13.5165491,11.9850879 13.3708631,12.0870536 13.1960545,12.0870536 C13.1086623,12.0870536 12.9821429,11.9850879 12.9821429,11.6937645 L12.9821429,8.96971814 C12.9821429,8.62010091 12.8806816,8.46428571 12.5893097,8.46428571 L10.4285954,8.46428571 C10.2101149,8.46428571 10.0787191,8.62655106 10.0787191,8.78033608 C10.0787191,9.11176681 10.5739738,9.1881986 10.625024,10.1205112 L10.625024,12.1453474 C10.625024,12.5892857 10.5448511,12.6697732 10.3700425,12.6697732 C9.90391046,12.6697732 8.77004296,10.9577933 8.09755477,8.99884079 C7.96576329,8.61808827 7.83357847,8.46428571 7.48216684,8.46428571 Z" id="↳-Icon-Color" fill="#3F8AE0" fill-rule="nonzero"></path>
        </g>
        <text id="sandbox" font-family="VKSansDisplay-Bold, VK Sans Display" font-size="18" font-weight="bold" fill="#3F8AE0">
            <tspan x="25" y="17.5">sandbox</tspan>
        </text>
    </g>
</svg>